<svg width="44" height="40" viewBox="0 0 44 40" fill="none" xmlns="http://www.w3.org/2000/svg">
<path d="M42.4382 17.8312L39.1167 13.2201C38.8754 12.8851 38.4563 12.7254 38.0461 12.8122C36.4081 13.1586 34.728 12.5191 33.7656 11.1831C32.8032 9.84705 32.7289 8.05078 33.5763 6.60693C33.7885 6.24531 33.7698 5.79729 33.5284 5.46223L30.2069 0.851257C29.8683 0.381136 29.2056 0.279627 28.7267 0.624538L0.86688 20.693C0.388061 21.038 0.274418 21.6987 0.613064 22.1688L3.93452 26.7798C4.17587 27.1149 4.5949 27.2745 5.00517 27.1878C6.64309 26.8414 8.32333 27.4808 9.28571 28.8168C10.2481 30.1528 10.3224 31.9491 9.47502 33.393C9.26273 33.7546 9.28148 34.2027 9.52283 34.5377L12.8443 39.1487C13.183 39.6189 13.8457 39.7204 14.3245 39.3755L42.1844 19.307C42.6632 18.962 42.7769 18.3013 42.4382 17.8312ZM29.0861 2.95159L31.4225 6.19511C30.5087 8.23661 30.7241 10.6172 32.0316 12.4321C33.339 14.2472 35.5287 15.2056 37.7545 14.9854L40.091 18.229L34.6214 22.1689L23.6166 6.89151L29.0861 2.95159ZM13.9652 37.0485L11.6287 33.8049C12.5426 31.7634 12.3271 29.3828 11.0197 27.5679C9.71231 25.7529 7.5226 24.7944 5.29674 25.0146L2.96027 21.771L21.8826 8.14059L32.8875 23.4181L13.9652 37.0485Z" fill="white"/>
</svg>
