<svg width="150" height="150" viewBox="0 0 150 150" fill="none" xmlns="http://www.w3.org/2000/svg">
<g clip-path="url(#clip0)">
<path d="M127.067 61.0169C127.067 82.0784 109.992 99.1525 88.931 99.1525C67.8683 99.1525 50.7954 82.0784 50.7954 61.0169C50.7954 39.9555 67.8683 22.8813 88.931 22.8813C109.992 22.8813 127.067 39.9555 127.067 61.0169Z" fill="#FDD020"/>
<path d="M88.931 15.2542C87.5258 15.2542 86.3887 14.1159 86.3887 12.7119V2.54237C86.3887 1.13836 87.5258 0 88.931 0C90.3351 0 91.4734 1.13836 91.4734 2.54237V12.7119C91.4734 14.1159 90.3351 15.2542 88.931 15.2542Z" fill="#FDD020"/>
<path d="M147.405 63.5594H137.236C135.831 63.5594 134.694 62.421 134.694 61.017C134.694 59.613 135.831 58.4746 137.236 58.4746H147.405C148.809 58.4746 149.948 59.613 149.948 61.017C149.948 62.421 148.809 63.5594 147.405 63.5594Z" fill="#FDD020"/>
<path d="M119.439 94.0677C117.58 94.0677 115.724 94.2539 113.901 94.6214C112.527 87.7627 108.084 81.912 101.846 78.7452C95.6095 75.5784 88.2642 75.4456 81.9157 78.384C76.1706 62.5587 58.6843 54.3878 42.859 60.133C27.0337 65.8794 18.8629 83.3657 24.6081 99.191C10.7454 99.6292 -0.204905 111.102 0.00240731 124.971C0.210961 138.839 11.5014 149.978 25.3715 150H119.439C134.883 150 147.405 137.479 147.405 122.034C147.405 106.588 134.883 94.0677 119.439 94.0677Z" fill="white"/>
<path d="M53.3377 25.4238L43.1682 15.2543L53.3377 25.4238Z" fill="#FDD020"/>
<path d="M53.3377 27.9661C52.6624 27.9661 52.0168 27.698 51.5401 27.2213L41.3706 17.0518C40.709 16.4137 40.4446 15.4678 40.6767 14.5789C40.9101 13.6901 41.604 12.9962 42.4929 12.764C43.3817 12.5306 44.3264 12.7963 44.9657 13.4567L55.1352 23.6262C55.8614 24.3537 56.0787 25.4473 55.6851 26.397C55.2916 27.3467 54.3655 27.9661 53.3377 27.9661Z" fill="#FDD020"/>
<path d="M124.524 25.4238L134.694 15.2543L124.524 25.4238Z" fill="#FDD020"/>
<path d="M124.524 27.9661C123.495 27.9661 122.569 27.3467 122.175 26.397C121.782 25.4473 121.999 24.3537 122.727 23.6262L132.896 13.4567C133.534 12.7963 134.479 12.5306 135.368 12.764C136.256 12.9962 136.952 13.6901 137.184 14.5789C137.416 15.4678 137.152 16.4137 136.491 17.0518L126.322 27.2213C125.845 27.698 125.198 27.9661 124.524 27.9661Z" fill="#FDD020"/>
</g>
<defs>
<clipPath id="clip0">
<rect width="150" height="150" fill="white"/>
</clipPath>
</defs>
</svg>
